<?xml version="1.0" encoding="UTF-8"?>
<svg width="20px" height="20px" viewBox="0 0 20 20" version="1.1" xmlns="http://www.w3.org/2000/svg" xmlns:xlink="http://www.w3.org/1999/xlink">
    <title>AF5DEC30-0F98-42D5-9FB3-6DD990CB1E43</title>
    <defs>
        <filter id="filter-1">
            <feColorMatrix in="SourceGraphic" type="matrix" values="0 0 0 0 1.000000 0 0 0 0 1.000000 0 0 0 0 1.000000 0 0 0 1.000000 0"></feColorMatrix>
        </filter>
    </defs>
    <g id="PV-6" stroke="none" stroke-width="1" fill="none" fill-rule="evenodd">
        <g id="legend-concept" transform="translate(-596.000000, -424.000000)">
            <g id="ic_phoneIN" transform="translate(596.000000, 424.000000)">
                <path d="M4.51574074,10.2976852 C5.64907407,12.525 7.475,14.3430556 9.70231481,15.4842593 L11.4337963,13.7527778 C11.6462963,13.5402778 11.9611111,13.4694444 12.2365741,13.5638889 C13.1180556,13.8550926 14.0703704,14.0125 15.0462963,14.0125 C15.4791667,14.0125 15.8333333,14.3666667 15.8333333,14.799537 L15.8333333,17.5462963 C15.8333333,17.9791667 15.4791667,18.3333333 15.0462963,18.3333333 C7.65601852,18.3333333 1.66666667,12.3439815 1.66666667,4.9537037 C1.66666667,4.52083333 2.02083333,4.16666667 2.4537037,4.16666667 L5.20833333,4.16666667 C5.6412037,4.16666667 5.99537037,4.52083333 5.99537037,4.9537037 C5.99537037,5.9375 6.15277778,6.88194444 6.44398148,7.76342593 C6.53055556,8.03888889 6.46759259,8.34583333 6.24722222,8.5662037 L4.51574074,10.2976852 Z" id="Shape" fill="#E7E7E7" fill-rule="nonzero"></path>
                <g filter="url(#filter-1)" id="ic/arrow">
                    <g transform="translate(14.500000, 5.500000) scale(1, -1) translate(-14.500000, -5.500000) translate(10.000000, 1.000000)">
                        <path d="M4.19995132,0.158904741 L4.27995543,0.228822827 L7.22623368,3.17510108 C7.53133079,3.48019819 7.53133079,3.97485832 7.22623368,4.27995543 C6.94656134,4.55962777 6.50760339,4.5829338 6.20138344,4.34987351 L6.12137934,4.27995543 L4.50833333,2.665625 L4.50877825,7.077588 C4.50877825,7.50906046 4.15900072,7.858838 3.72752825,7.858838 C3.33201183,7.858838 3.00514184,7.56492771 2.95341015,7.183599 L2.94627825,7.077588 L2.94583333,2.66666667 L1.33367717,4.27995543 C1.05400483,4.55962777 0.615046877,4.5829338 0.308826931,4.34987351 L0.228822827,4.27995543 C-0.0508495172,4.00028308 -0.0741555459,3.56132513 0.158904741,3.25510519 L0.228822827,3.17510108 L3.17510108,0.228822827 C3.45477343,-0.0508495172 3.89373138,-0.0741555459 4.19995132,0.158904741 Z" id="Path" fill="#191D21" fill-rule="nonzero"></path>
                    </g>
                </g>
            </g>
        </g>
    </g>
</svg>