<?xml version="1.0" encoding="UTF-8"?>
<svg width="20px" height="20px" viewBox="0 0 20 20" version="1.1" xmlns="http://www.w3.org/2000/svg" xmlns:xlink="http://www.w3.org/1999/xlink">
    <title>E00076E5-545D-4249-A6DA-6DF5DCB2C3CC</title>
    <defs>
        <filter id="filter-1">
            <feColorMatrix in="SourceGraphic" type="matrix" values="0 0 0 0 1.000000 0 0 0 0 1.000000 0 0 0 0 1.000000 0 0 0 1.000000 0"></feColorMatrix>
        </filter>
    </defs>
    <g id="PV-6" stroke="none" stroke-width="1" fill="none" fill-rule="evenodd">
        <g id="legend-concept" transform="translate(-836.000000, -424.000000)">
            <g id="ic_emailIN" transform="translate(836.000000, 424.000000)">
                <path d="M8.33333333,7.08333333 L8.337,7.29150736 L4.16666667,7.29166667 C4.0432532,7.29166667 3.92485248,7.31312876 3.81499323,7.35252421 L9.41259562,12.9506148 C9.793967,13.3319862 10.3974826,13.3558219 10.806622,13.0221219 L10.8857348,12.9506148 L11.7269123,12.1095607 C12.171143,12.2885355 12.6445554,12.4103255 13.1380317,12.4658131 L11.7696182,13.8344982 C10.9078131,14.6963034 9.5303826,14.7282221 8.63038298,13.9302544 L8.52871215,13.8344982 L3.125,8.43066667 L3.125,15.8333333 C3.125,16.3702768 3.53126013,16.8123332 4.05316561,16.8688876 L4.16666667,16.875 L15.8333333,16.875 C16.3702768,16.875 16.8123332,16.4687399 16.8688876,15.9468344 L16.875,15.8333333 L16.8751947,11.5080636 C17.3557206,11.1680481 17.778426,10.7517265 18.125665,10.2767444 L18.125,15.8333333 C18.125,17.0462504 17.1827058,18.0390828 15.9902349,18.1197131 L15.8333333,18.125 L4.16666667,18.125 C2.95374964,18.125 1.96091722,17.1827058 1.88028694,15.9902349 L1.875,15.8333333 L1.875,8.33333333 C1.875,7.1204163 2.81729421,6.12758388 4.0097651,6.04695361 L4.16666667,6.04166667 L8.43362665,6.04050017 C8.36781487,6.37795676 8.33333333,6.72661825 8.33333333,7.08333333 Z" id="Combined-Shape" fill="#E7E7E7" fill-rule="nonzero"></path>
                <g filter="url(#filter-1)" id="ic/arrow">
                    <g transform="translate(15.333333, 5.500000) scale(1, -1) translate(-15.333333, -5.500000) translate(10.833333, 1.000000)">
                        <path d="M4.19995132,0.158904741 L4.27995543,0.228822827 L7.22623368,3.17510108 C7.53133079,3.48019819 7.53133079,3.97485832 7.22623368,4.27995543 C6.94656134,4.55962777 6.50760339,4.5829338 6.20138344,4.34987351 L6.12137934,4.27995543 L4.50833333,2.665625 L4.50877825,7.077588 C4.50877825,7.50906046 4.15900072,7.858838 3.72752825,7.858838 C3.33201183,7.858838 3.00514184,7.56492771 2.95341015,7.183599 L2.94627825,7.077588 L2.94583333,2.66666667 L1.33367717,4.27995543 C1.05400483,4.55962777 0.615046877,4.5829338 0.308826931,4.34987351 L0.228822827,4.27995543 C-0.0508495172,4.00028308 -0.0741555459,3.56132513 0.158904741,3.25510519 L0.228822827,3.17510108 L3.17510108,0.228822827 C3.45477343,-0.0508495172 3.89373138,-0.0741555459 4.19995132,0.158904741 Z" id="Path" fill="#191D21" fill-rule="nonzero"></path>
                    </g>
                </g>
            </g>
        </g>
    </g>
</svg>