<?xml version="1.0" encoding="UTF-8"?>
<svg width="20px" height="20px" viewBox="0 0 20 20" version="1.1" xmlns="http://www.w3.org/2000/svg" xmlns:xlink="http://www.w3.org/1999/xlink">
    <title>C5570401-F89F-4FCD-83F3-F16063EE8E3F</title>
    <defs>
        <filter id="filter-1">
            <feColorMatrix in="SourceGraphic" type="matrix" values="0 0 0 0 1.000000 0 0 0 0 1.000000 0 0 0 0 1.000000 0 0 0 1.000000 0"></feColorMatrix>
        </filter>
    </defs>
    <g id="PV-6" stroke="none" stroke-width="1" fill="none" fill-rule="evenodd">
        <g id="legend-concept" transform="translate(-714.000000, -649.000000)">
            <g id="ic_textOUT" transform="translate(714.000000, 649.000000)">
                <path d="M8.53199147,4.79137326 L7.91666667,4.79166667 C5.27030224,4.79166667 3.125,6.93696891 3.125,9.58333333 C3.125,12.2296978 5.27030224,14.375 7.91666667,14.375 L7.91666667,14.375 L8.33333333,14.375 C8.6785113,14.375 8.95833333,14.654822 8.95833333,15 L8.95833333,15 L8.95833333,16.8233333 L11.2247249,14.5580583 C11.3184931,14.4642901 11.4389883,14.4033937 11.568305,14.3827859 L11.568305,14.3827859 L11.6666667,14.375 L12.0833333,14.375 C14.317008,14.375 16.1937122,12.8466282 16.72472,10.7786108 C17.2661544,10.4211184 17.7404034,9.96955276 18.123186,9.44679937 L18.125,9.58333333 C18.125,12.9200537 15.4200537,15.625 12.0833333,15.625 L12.0833333,15.625 L11.925,15.625 L8.77527507,18.7752751 C8.40226956,19.1482806 7.77842373,18.9176388 7.71378901,18.4188841 L7.71378901,18.4188841 L7.70833333,18.3333333 L7.70833333,15.6208333 L7.51942542,15.6121489 C4.43353574,15.411855 1.97915582,12.8947448 1.87822935,9.78276184 L1.87822935,9.78276184 L1.875,9.58333333 C1.875,6.24661297 4.5799463,3.54166667 7.91666667,3.54166667 L7.91666667,3.54166667 L9.05866236,3.54049932 C8.83353545,3.92945291 8.65539132,4.34899806 8.53199147,4.79137326 Z" id="Combined-Shape" fill="#E7E7E7" fill-rule="nonzero"></path>
                <g filter="url(#filter-1)" id="ic/arrow">
                    <g transform="translate(10.833333, 1.666667)">
                        <path d="M4.19995132,0.158904741 L4.27995543,0.228822827 L7.22623368,3.17510108 C7.53133079,3.48019819 7.53133079,3.97485832 7.22623368,4.27995543 C6.94656134,4.55962777 6.50760339,4.5829338 6.20138344,4.34987351 L6.12137934,4.27995543 L4.50833333,2.665625 L4.50877825,7.077588 C4.50877825,7.50906046 4.15900072,7.858838 3.72752825,7.858838 C3.33201183,7.858838 3.00514184,7.56492771 2.95341015,7.183599 L2.94627825,7.077588 L2.94583333,2.66666667 L1.33367717,4.27995543 C1.05400483,4.55962777 0.615046877,4.5829338 0.308826931,4.34987351 L0.228822827,4.27995543 C-0.0508495172,4.00028308 -0.0741555459,3.56132513 0.158904741,3.25510519 L0.228822827,3.17510108 L3.17510108,0.228822827 C3.45477343,-0.0508495172 3.89373138,-0.0741555459 4.19995132,0.158904741 Z" id="Path" fill="#191D21" fill-rule="nonzero"></path>
                    </g>
                </g>
            </g>
        </g>
    </g>
</svg>